<svg width="490" height="380" xmlns="http://www.w3.org/2000/svg"> <g>  <title>background</title>  <rect fill="none" id="canvas_background" height="382" width="492" y="-1" x="-1"/> </g> <g>  <title>Layer 1</title>  <path id="svg_4" fill="#5fd4af" d="m130.570123,99.704777l230.584,0c0,0 15.264,0.996 15.987,15.978l0,138.132c0,0 0.991,14.696 -13.705,15.41l-232.865,0.568c0,0 -15.979,1.146 -15.979,-15.978l0.56,-138.132c-0.001,0 -1.56,-13.269 15.418,-15.978z"/>  <path id="svg_5" fill="#DEE4E7" d="m177.223123,128.545777c0.748,-1 2.201,-0.56 1.466,-3.192c-0.616,0.077 -1.227,0.167 -1.846,0.252c-1.214,1.299 0.692,0.308 -0.975,0.975c-0.063,1.35 0.834,0.824 1.355,1.965zm-0.5,2.21c0.479,0.269 -0.149,1.688 1.718,0.487c-0.7,-1.316 -1.239,-0.218 -1.718,-0.487zm-6.26,-5.778c1.867,-0.021 3.009,-0.932 4.91,-0.483c-2.077,-2.854 -3.145,-2.402 -6.128,-0.978c-1.086,2.393 0.709,0.363 1.218,1.461zm2.457,-4.043c0.406,-1.752 -0.675,0.064 -1.479,-0.611c0.449,0.393 -1.154,2.073 1.479,0.611zm25.594,33.727c1.624,0.534 2.688,0.876 3.243,0.914c0.825,-3.278 -0.466,-3.004 -1.901,-3.436c-0.415,1.286 -1.492,0.727 -1.342,2.522zm-21.291,-34.71c-0.731,1.06 1.722,0.551 1.837,0.491c-1.128,-1.004 -1.303,-1.239 -2.709,-1.966c-1.11,1.087 0.62,1.817 0.872,1.475zm0.116,2.825c0.017,-0.282 -2.304,0.316 1.837,0.987c0.526,-2.842 -1.094,-0.453 -1.837,-0.987zm3.44,0.62c0.389,0.73 0.816,1.521 0,0l0,0zm-0.5,-3.316c0.791,-0.226 1.094,1.714 1.718,-0.376c-1.479,-1.953 -1.137,0.2 -1.718,0.376zm0.863,-2.83c-1.688,0.736 -1.261,0.552 0,0l0,0zm-27.307,35.24c0.312,1.269 1.286,0.803 1.692,1.124c-0.855,-0.663 -0.581,-1.782 -1.692,-1.124zm45.406,86.811c-0.543,1.09 -1.432,-0.098 -1.338,1.778c2.572,-0.39 1.132,-1.347 1.338,-1.778zm-42.223,-108.029c0.004,0 0.004,0 0.004,0c0.427,-0.226 0.833,-0.478 1.222,-0.803c-0.413,0.273 -0.824,0.538 -1.226,0.803zm46.304,65.709c0.611,-0.081 0.478,-1.128 0.214,-1.385c-0.269,0.325 -1.697,1.034 -2.18,1.474c4.24,-6.701 -14.192,-15.812 -17.277,-7.983c-4.679,-0.449 -7.859,-7.504 -6.867,-11.047c-9.692,8.064 -8.132,-11.235 -0.859,-6.444c2.5,-2.235 5.184,0.188 6.188,4.077c-1.991,-7.598 6.607,-17.41 12.893,-20.025c-0.141,0.32 -1.641,2.765 -1.585,2.692c1.184,-0.56 2.316,-1.508 3.487,-2.145c-1.517,-1.064 -1.803,-2.261 -2.205,-2.701c-1.35,-0.034 -1.701,0.141 -3.192,0.555c3.423,-2.397 8.692,-1.213 9.081,-5.526c-0.799,0.235 -1.752,0.406 -2.504,0.295c0.094,-0.098 1.974,-0.611 1.65,-1.402c-1.726,-1.009 -2.756,-2.722 -3.628,-5.521c-4.013,4.577 -3.564,-5.825 -8.402,-0.312c-1.282,1.453 -2.851,16.162 -3.991,5.709c-13.12,-3.098 -0.295,-7.992 -2.509,-12.034c3.222,0.589 5.688,-0.607 5.457,-4.043c-1.047,0.757 -2.594,1.227 -3.624,2.637c-0.214,-0.979 0.325,-1.316 -0.368,-2.273c-0.265,0.329 -0.526,0.649 -0.799,0.987c-0.667,-1.589 -1.069,-2.534 -1.769,-3.876c-0.013,0.047 -1.752,1.577 -1.974,1.667c2.837,6.111 -18.342,-0.295 -21.534,0.914c-6.068,3.175 -15.59,-2.927 -22.778,1.65c1.192,0.573 2.15,1.359 3.436,1.85c-2.556,-0.102 -3.303,0.829 -5.282,1.103c1.355,0.346 2.051,0.983 3.932,1.227c-2.786,1.491 -6.175,4.047 -2.816,4.551c0.671,0.68 -0.748,1.496 -0.252,2.325c0.898,0.051 1.483,-0.479 2.338,-0.372c-1.244,1.06 -3.752,3.859 -5.663,4.79c5.5,-0.658 8.577,-5.214 12.103,-7.295c-0.919,1.09 -1.543,1.239 -2.03,2.141c7.431,-5.979 13.914,4.966 16.085,11.726c-0.526,-0.09 -0.573,-0.731 -1.35,-0.808c-1.115,8.312 0.235,16.79 7.303,22.782c-1.329,-2.427 -2.192,-5.282 -3.312,-7.611c5.628,7.914 7.85,10.359 16.91,15.18c9.081,4.812 4.607,6.478 5.979,14.517c-1.316,1.069 6.927,13.684 7.119,17.992c0.368,7.889 -4.107,19.846 3.141,25.897c2.295,-4.94 1.966,-8.722 2.325,-13.282c2.637,-0.594 5.107,-2.325 4.201,-5.496c3.513,-1.013 1.68,0.196 3.842,-3.65c0.709,0.47 0.098,0.342 0.179,1.098c3.064,-7.795 10.919,-13.128 10.838,-21.944c-3.251,-1.956 -6.216,-3.832 -9.951,-2.661zm-23.876,-36.329c-1.021,-3.889 -0.41,-3.889 1.103,-3.744c-0.261,0.97 -0.873,2.761 -1.103,3.744zm-1.274,-6.492c1.842,-0.291 3.812,0.333 5.658,3.291c-0.398,0.453 -0.568,0.286 -0.987,1.419c-0.308,-0.795 -0.774,-0.419 -1.295,-0.304c-0.637,-3.662 -1.945,-3.816 -4.79,-2.953c0.111,-0.671 0.692,-1.119 1.414,-1.453zm-3.064,-2.162c-2.278,-0.321 -1.346,-1.611 -1.837,-3.569c0.239,0.736 1.205,2.454 1.837,3.569zm8.239,-15.354c-0.44,-0.235 0.41,1.803 0.624,1.961c0.586,-0.449 1.59,-0.919 2.081,-1.346c-0.995,-1.859 -1.696,-0.085 -2.705,-0.615zm10.778,105.396c-0.158,0.445 -1.483,-0.893 -1.658,0.915c3.436,1.529 1.355,-0.069 1.658,-0.915zm-56.196,-96.832c1.359,0.606 0.154,0.068 0,0l0,0zm30.081,-23.163c1.282,1.304 1.201,-1.004 1.103,-1.359c-1.705,0.782 -3.086,1.543 -4.171,2.338c1.927,0.735 1.688,-0.568 3.068,-0.979zm12.884,5.026c0.137,-0.227 1.923,-0.761 2.337,-1.466c-3.76,0.38 -2.396,1.761 -2.337,1.466zm-12.76,-0.611c-3.71,-3.504 -7.03,-0.953 -5.282,2.701c1.795,-0.552 3.637,-1.842 5.282,-2.701zm-2.214,3.918c3.53,2.06 10.914,1.983 8.466,-1.346c-0.505,-0.927 -0.928,-1.308 -0.355,-2.325c-1.786,0.423 -1.034,-0.637 -1.85,1.35c-2.086,-1.786 -4.428,-1.154 -6.5,0.974c0.859,0.171 1.718,0.325 2.568,0.491c-0.551,0.421 -2.055,0.015 -2.329,0.856zm5.034,-10.674c0.812,0 1.726,-0.5 2.453,-0.491c-1.025,-0.01 -1.363,-1.544 -2.453,0.491zm101.547,9.303c-2.479,-3.628 2.188,-6.128 6.073,-6.996c-4.68,-0.41 -10.944,2.201 -8.286,7.491c0.238,-0.363 1.695,0.441 2.213,-0.495zm19.269,-11.474c0.38,-1.316 2.256,0.368 1.837,-1.962c-3.59,-0.47 -1.547,0.962 -1.837,1.962zm1.162,0.124c0.303,0.043 1.457,1.432 3.017,0.987c-0.667,-2.359 -1.487,-0.77 -3.017,-0.987zm-19.641,11.91c0.466,1.521 0.15,0.478 0,0l0,0zm-27.03,-10.659c0.368,1.406 0.915,1.693 1.483,2.94c-0.119,0.043 1.055,-2.137 1.227,-2.329c1.944,1.248 0.726,1.06 2.829,0.491c-3.415,-3.35 -6.953,-3.624 -7.743,-0.739c0.546,0.493 1.845,-0.204 2.204,-0.363zm21.513,12.804c-0.218,-0.675 -0.436,-1.342 0,0l0,0zm-16.598,-13.414c0.568,-0.666 1.786,-0.718 2.462,-1.607c-1.5,-0.158 -3.06,-0.227 -4.551,-0.116c0.08,1.945 1.392,0.65 2.089,1.723zm75.183,4.858c0.017,0.205 0.094,0.911 0.081,0.889c-0.034,-0.521 -0.073,-0.781 -0.081,-0.889zm-138.465,1.21c0.88,-0.025 1.987,1.295 1.718,-0.179c-0.278,-1.564 -6.825,-2.107 -7.735,-2.026c1.543,2.799 3.145,2.457 6.017,2.205zm161.384,4.705c-0.53,-0.299 0.051,-1.885 -1.59,-0.551c-0.389,1.658 0.777,0.085 1.59,0.551zm-27.735,-4.79c0.893,-0.385 1.568,-0.196 2.513,-0.663c-2.213,-0.923 -2.227,-1.004 -4.598,-0.983c-0.052,1.983 1.183,0.791 2.085,1.646zm-23.812,-4.479c-0.051,-0.709 2.013,-0.991 -0.244,-2.013c-2.256,1.701 0.201,1.414 0.244,2.013zm-65.709,8.923c0.073,0.786 0.18,2.055 0,0l0,0zm0.675,15.534c1.095,-1.034 0.304,-0.282 0,0l0,0zm16.509,-13.201c-0.035,-0.791 -0.022,-0.521 0,0l0,0zm-53.333,-1.406c-2.504,-2.252 -4.876,-3.137 -7.367,-1.846c0.124,-0.735 0.244,-1.47 0.38,-2.201c-1.863,0.56 -2.307,0.872 -3.568,1.714c0.167,-0.62 0.329,-1.231 0.487,-1.846c-7.231,6.436 15.043,6.128 2.825,11.171c2.09,0.893 4.368,2.102 7,3.072c-0.287,-0.654 -0.568,-1.316 -0.863,-1.966c0.577,0.368 1.145,0.731 1.722,1.094c-0.534,-1.671 -0.363,-2.833 -0.983,-4.41c1.038,0.402 1.594,0.893 2.577,1.846c0.162,-2.405 -0.693,-4.38 -2.21,-6.628zm-12.389,-11.538c5.786,2.581 0.214,-5.192 0,0l0,0zm8.59,-2.333c0.017,-0.013 -1.645,1.62 -1.992,2.12c-0.812,0.141 -1.457,-0.551 -2.055,-0.53c-1.355,1.791 -1.043,2.256 -3.201,3.808c6.073,3.979 11.598,-5.184 17.312,-7.244c-4.474,-1.141 -15.124,-1.32 -14.974,2.342c1.837,-0.121 2.944,0.679 4.91,-0.496zm55.726,15.341c0.265,0.009 1.406,0.038 0,0l0,0zm-13.872,13.987c0.445,1.227 -0.376,1.945 1.902,2.714c-1.602,2.222 -0.615,1.073 -0.491,2.568c-0.145,0.308 -1.12,1.325 -1.41,1.726c8.114,-0.905 1.362,-10.119 -0.001,-7.008zm12.333,-13.623c0.915,-0.329 1.047,-0.372 0,0l0,0zm-9.513,10.384c-0.751,-1.714 -0.111,-0.261 0,0l0,0zm-0.67,0.795c-0.535,0.166 -0.586,0.179 0,0l0,0zm-5.402,6.812c4.367,0.119 2.197,-4.735 0,0l0,0zm104.285,7.666c-0.97,-0.342 -1.487,-0.722 -1.658,-1.833c-0.133,0.961 -0.812,2.564 -0.863,3.556c0.363,0.102 2.389,-0.137 2.389,0.735c0,0.218 0.333,-3.424 0.132,-2.458zm-0.965,39.081c-0.214,-0.021 -0.428,-1.273 -1.466,-0.119c0.166,1.397 0.718,0.038 1.466,0.119zm-2.757,-48.487c0.692,3.223 1.252,3.773 2.637,5.034c-0.594,-1.722 -0.902,-2.077 -1.129,-3.145c-1.085,-0.841 -0.149,-1.414 -1.508,-1.889zm-1.38,19.787c-1.056,0.196 -0.94,0.183 0,0l0,0zm4.936,34.281c3.248,-0.799 6.201,-0.402 9.188,1.256c-1.423,-2.29 -3.355,-4.401 -5.042,-5.526c-2.876,-1.068 -4.252,-1.842 -6.91,0.218c2.409,2.07 1.896,2.382 2.764,4.052zm-6.406,-35.764c3.009,0.884 8.773,-0.757 4.915,-6.004c-0.295,2.97 -1.402,2.846 -2.205,4.846c-0.83,0.59 -1.809,-0.086 -2.71,1.158zm-6.547,37.115c1.376,-0.91 0.607,-0.402 0,0l0,0zm6.179,-33.919c0.863,-0.91 -0.145,-1.654 0.06,-2.568c-0.308,1.393 -1.684,1.141 -0.06,2.568zm-5.996,29.991c1.004,0.27 0.624,-0.91 1.359,-1.41c0.867,0.547 -0.423,1.56 1.282,1.538c-0.765,-1.923 -0.154,-2.004 -0.056,-3.564c-1.59,-0.577 -0.556,-0.047 -1.581,-1.393c-1.2,0.825 -1.76,2.672 -1.004,4.829zm2.949,3.992c0.347,-1.492 -0.047,0.239 0,0l0,0zm4.539,-5.654c0.013,0 0.013,0 0.013,0c0.256,0.261 0.171,0.175 -0.013,0zm-5.398,4.363c-1.705,0.047 -2.017,0.06 0,0l0,0zm1.902,-7.671c-1.081,-0.496 -2.086,-0.423 -2.851,0.043c1.112,0.492 1.714,-0.081 2.851,-0.043zm-81.961,-35.392c-0.427,1.192 -0.577,1.619 0,0l0,0zm3.329,4.94c0.359,-0.851 0.201,-0.453 0,0l0,0zm-4.09,-3.017c0.394,0.658 1.248,2.051 0,0l0,0zm0.27,-17.017c1.654,0.619 -0.346,-0.128 0,0l0,0zm103.687,-13.342c-4.167,-1.03 -6.295,0.748 -10.18,0.243c-3.517,-0.461 -7.966,-3.564 -11.478,-3.748c-3.85,-0.201 -5.718,1.752 -10.684,0.666c-0.077,-2.021 -8.603,-3.158 -13.137,-1.15c7.735,-4.53 -2.974,-6.978 -3.863,-4.235c-3.633,0.103 -7.995,0.12 -8.043,3.312c-3.086,1.145 -4.243,0.222 -1.658,3.808c-0.743,-0.265 -2.701,-1.611 -3.192,-1.974c-0.898,-0.214 0.184,1.641 0.064,1.654c-1.274,-0.983 -1.333,-1.235 -2.214,-2.513c-0.556,3.257 1.269,4.983 3.748,6.692c-3.252,-0.449 -2.496,-0.842 -5.641,0.983c5.795,-6.218 -6.385,-11.376 -1.047,-2.153c-3.372,-1.645 -3.432,-1.124 -5.098,-0.12c-2.453,-0.692 -5.102,0.06 -8.342,1.966c-0.786,-1.675 -0.675,-1.098 -2.094,-1.846c0.12,0.786 0.586,2.184 0.859,2.884c-2.961,0.821 -1.286,-0.154 -2.581,1.966c-0.12,0.06 -1.457,-0.701 -2.086,-0.799c0.402,-0.004 0.479,1.227 0.38,1.47c-1.252,-1.137 -1.513,-2.013 -2.162,-3.492c1.799,0.09 2.808,-0.607 4.004,-0.731c-2.222,-1.286 -3.667,-2.158 -5.824,-2.29c-0.898,-2.65 -3.932,-1.479 -5.62,-1.923c-0.098,0.491 -0.436,0.752 -0.978,0.727c-1.466,4.53 -11.526,7.589 -8.97,13.884c3.513,0.098 3.744,-0.38 5.411,2.748c1.876,-2.115 1.649,-3.038 1.462,-4.355c0.543,-2.389 1.966,-7.683 5.53,-5.825c-3.59,1.731 -3.628,5.158 1.111,4.675c0.235,0.372 0.47,0.735 0.723,1.103c-3.915,0.889 -1.205,0.731 -2.483,2.295c-0.684,0.205 -1.111,-0.06 -1.299,-0.795c-0.898,4.73 -7.974,6.632 -7.812,0.701c-0.68,2.513 -1.265,3.949 -2.795,6.902c-2.526,-0.175 -4.338,0.957 -6.731,2.235c0.004,0.171 -0.008,0.338 -0.034,0.496c5.342,4.919 -2.055,3.252 -2.833,5.581c-1.213,3.568 -0.137,5.325 2.825,4.979c4.983,-0.598 8.88,-13.393 13.744,-1.41c0.47,-0.303 1.936,-1.372 2.021,-1.474c-2.551,-1.748 -3.141,-3.821 -3.91,-5.812c2.56,2.35 4.355,4.564 6.214,6.923c0.069,0.261 -0.812,0.034 -0.821,0.368c0.436,0.03 0.577,0.248 0.428,0.675c-0.017,0.081 1.808,-0.637 1.902,-0.68c-0.239,-0.932 -0.987,-0.97 -1.197,-1.684c1.004,-0.137 1.851,-0.705 3.175,-1.098c-0.414,-0.505 -0.919,-0.624 -1.479,-0.385c1.5,-1.65 2.304,-2.846 3.517,-5.017c0.735,-0.094 4.167,-0.188 5.457,-0.06c-0.043,1.051 1.539,5.615 1.021,5.632c-2.577,0.111 -5.709,-2.175 -8.299,-0.124c-3.363,2.65 2.483,4.979 5.624,4.359c0.175,1.239 -0.086,4.372 -0.556,5.586c-2.568,-1.547 -3.654,-0.915 -6.598,-1.098c0.009,0.795 -0.025,1.62 -0.06,2.444c-0.239,-3.214 -1.025,-5.342 -3.713,-1.795c-7.346,-1.098 -7.312,-9.748 -16.816,-4.145c-5.914,3.487 -6.209,10.833 -9.115,17.329c1.111,2.291 3.175,5.026 5.513,7.769c2.658,3.107 9.487,-2.261 13.602,1.513c0.056,0.051 2,8.265 2.081,9.171c0.461,4.991 -0.782,10.419 1.547,16.107c4.132,10.107 13.919,4.094 14.295,-5.428c0.098,-2.649 3.568,-2.487 3.962,-4.384c0.649,-3.163 -1.474,-6.235 -0.714,-8.684c1.649,-5.201 9.235,-8.145 7.555,-13.872c-7.132,4.662 -11.209,-9.897 -13.192,-14.803c5.915,3.718 4.885,17.042 14.167,12.218c10.923,-5.654 -0.833,-6.414 -3.735,-12.338c0.372,0.282 1.436,-0.098 1.654,-0.295c2.218,2.932 14.662,7.213 16.021,6.679c0.526,4.162 2.206,8.163 3.987,11.85c2.521,-5.286 5.102,-9.269 9.154,-13.073c0.898,2.291 2.184,3.547 2.76,6.261c0.582,-0.077 1.27,-0.769 1.59,-0.799c0.953,4.188 2.192,10.495 6.03,12.641c-0.359,-3.624 -2.239,-5.722 -2.837,-9.017c1.192,1.927 2.244,1.5 3.068,3.744c5.645,-3.607 -0.346,-7.064 1.778,-11.235c10.03,4.256 6.261,-10.949 7.859,-13.872c-2.752,-1.282 -3.662,0.603 -1.038,-2.581c0.171,0.543 0.248,1.094 0.248,1.658c1,-0.368 1.645,-1.124 2.683,-0.739c0.201,1.786 1.599,3.244 2.218,5.154c0.214,-2.581 0.825,-1.769 -1.107,-5.03c1.88,-2.65 4.183,-2.611 5.859,-6.098c2.304,-4.769 -2.184,-7.654 -2.179,-7.765c0.449,-4.885 10.307,-8.201 14.372,-8.47c-1.829,3.089 -3.945,7.508 -0.432,11.042c3.35,-3.722 -0.731,-10.692 5.709,-8.525c0.564,-2.598 1.739,-1.637 3.372,-3.073c0.077,0.372 1.65,-0.457 -0.919,-2.15c0.5,-1.068 1.538,-1.658 1.842,-2.517c1.376,1.722 2.615,1.624 4.355,3.128c0.354,-0.556 1.222,-2.129 1.419,-3.068c-4.5,-0.076 -5.581,-2.512 -10.324,-3.674zm-17.739,67.136c-0.419,-0.38 -1.402,-1.274 0,0l0,0zm14.718,0.761c-0.346,0.91 -2.363,0.889 -0.5,1.474c1.735,-0.923 0.504,-1.483 0.5,-1.474zm-16.859,-4.381c0.615,1.915 1.449,0.393 1.162,0.188c-0.713,-0.491 0.146,-2.499 -1.162,-0.188zm25.88,17.705c0.201,0.334 1.594,2.595 0,0l0,0zm-8.141,-14.572c0.436,-0.115 0.778,1.876 0.863,-0.239c-1.799,-1.321 -0.94,0.26 -0.863,0.239zm-28.97,0.56c4.991,1.923 6.128,-5.829 4.436,-7.885c-1.188,1.03 -10.021,5.722 -4.436,7.885zm-48.705,16.192c1.889,6.808 5.419,-6.294 5.099,-8.987c-1.689,1.337 -6.099,5.359 -5.099,8.987zm-38.974,-79.329c-2.71,-0.218 -4.603,-0.03 -6.256,0.975c0.863,1.094 0.346,0.782 0.983,1.961c1.525,-0.607 1.517,0.214 2.577,0.748c1.782,-1.179 2.983,-1.222 2.696,-3.684zm94.427,59.697c0.064,0.073 0.098,0.124 0.141,0.201c0.047,-0.034 0.081,-0.081 0.137,-0.098c-0.103,-0.044 -0.171,-0.044 -0.278,-0.103zm-18.466,-3.5c2.615,2.577 5.346,9.427 7.974,7.616c-1.153,-3.134 -4.26,-6.762 -7.974,-7.616zm-83.375,-61.415c1.641,-0.214 0.611,-0.675 3.06,0.12c-0.346,-0.637 -0.859,-2.5 -1.346,-3.316c3.269,-0.039 4.017,-2.419 4.051,-4.667c-1.175,-1.18 -0.5,-0.449 -2.213,-1.342c0.427,-1.431 1.303,-1.445 2.213,-2.462c-0.419,-0.201 -0.824,-0.406 -1.231,-0.611c1.791,-0.522 3.239,-1.445 4.91,-2.086c-2.833,0.522 -4.103,0.021 -6.872,1.355c0.363,-0.658 0.74,-1.308 1.103,-1.974c-3.086,0.419 -2.508,-0.214 -6.385,0.124c2.098,-0.419 4.145,-1.081 6.261,-1.474c-2.188,-0.081 -3.821,-0.419 -6.261,-0.119c0.774,-0.325 1.556,-0.654 2.342,-0.987c-3.363,0.496 -5.953,0.722 -8.718,0.735c0.098,0.739 -0.03,1.431 -0.376,2.094c-5.59,-0.799 -9.658,0.547 -16.201,5.769c0.376,0.158 2.88,0.577 3.06,0.611c-0.709,0.209 -1.453,0.325 -2.205,0.368c6.786,0.705 7.098,4.474 9.756,7.829c-0.423,0.154 -0.846,0.295 -1.252,0.44c0.141,0.278 0.209,0.757 0.26,1.355c0.282,3.282 -0.252,10.372 4.987,10.389c0.141,0 3.226,-6.025 5.393,-6.504c2.551,-0.568 5.59,-3.38 8.355,-5.034c-0.918,-0.232 -1.764,-0.501 -2.691,-0.613zm92.204,67.795c-1.282,-1.209 -1.372,-1.286 0,0l0,0zm-108.247,-66.034c-1.333,0.022 -1.162,0.022 0,0l0,0zm113.773,70.149c-1.838,-1 -4.026,-1.838 -6.62,-0.859c2.15,1.308 4.581,1.368 6.62,0.859zm-131.811,-20.324c1.073,-0.376 2.56,0.026 3.534,-0.376c-3.171,-1.898 -3.149,-0.62 -3.534,0.376zm4.055,-0.214c1.3,0.051 1.389,0.051 0,0l0,0zm-12.008,-3.128c3.154,0.555 5.098,1.013 7.239,1.658c-2.589,-1.735 -4.346,-3.022 -7.239,-1.658zm4.209,3.222c1.569,-0.137 2.065,-0.184 0,0l0,0zm111.739,9.273c0.419,-1.607 -0.718,-1.705 -0.923,-2.769c0.273,1.479 -1.624,2.723 0.923,2.769zm28.7,-4.03c1.035,-0.149 1.047,-0.149 0,0l0,0zm0.312,-2.239c1.15,0.731 1.894,1.201 0,0l0,0zm0.483,4.509c0.436,0 -2.269,0.03 0,0l0,0zm-10.158,-7.663c1.201,-1.825 -0.192,-1.431 -0.248,-1.598c0.231,0.705 -1.38,1.385 0.248,1.598zm9.064,4.227c-0.88,-2.615 0.295,0.91 0,0l0,0zm2.936,0.859c-1.124,-0.389 -0.453,-0.154 0,0l0,0zm-1.59,2.765c0.282,0.043 1.214,1.637 1.47,1.902c1.859,-3.723 0.018,-1.637 -1.47,-1.902zm-3.786,13.115c0.688,0.196 0.919,0.265 0,0l0,0zm-120.456,-50.098c0.389,0.043 0.098,0.013 0,0l0,0zm123.383,31.577c-0.128,-0.376 -0.423,-1.714 -0.124,-2.15c-1.158,0.415 -3.423,0.137 0.124,2.15zm14.364,20.265c-0.073,5.996 -4.44,6.795 -3.987,1.346c-1.136,-0.534 -2.854,-0.598 -4.051,-0.923c-0.06,0.359 0.957,0.838 0.611,1.171c-2.833,1.504 -4.996,2.384 -7.248,3.376c-1.235,2.577 -7.124,4.056 -6.961,6.051c0.162,2.06 0.718,3.496 0.863,6.803c0.333,7.867 9.713,-4.675 13.043,2.726c0.188,-0.166 1.833,-1.709 1.957,-1.773c-0.231,0.731 0.077,1.158 -0.615,1.837c0.428,0.615 0.812,-0.436 0.923,-0.68c1.564,9.59 14.556,-1.312 10.739,-8.773c-2.573,-3.059 -3.988,-7.392 -5.274,-11.161z"/>  <path id="svg_7" fill="#7E848B" d="m147.382123,257.758777c1.85,0 3.431,-0.688 4.726,-2.085c1.278,-1.381 2.163,-2.949 2.624,-4.684c0.474,-1.722 0.688,-3.167 0.688,-4.359c0,-2.735 -0.577,-4.774 -1.778,-6.124c-1.167,-1.325 -2.615,-2.009 -4.329,-2.009c-2.573,0 -4.59,1.192 -6.051,3.59c-1.449,2.376 -2.175,4.927 -2.175,7.662c0,2.175 0.521,4.043 1.556,5.611c1.059,1.582 2.619,2.398 4.739,2.398zm-1.923,-13.419c0.774,-2.213 1.992,-3.35 3.594,-3.35c1.017,0 1.825,0.363 2.38,1.137c0.59,0.752 0.889,1.833 0.889,3.265c0,1.995 -0.406,4.132 -1.188,6.406c-0.782,2.291 -2.017,3.453 -3.727,3.453c-0.978,0 -1.752,-0.397 -2.316,-1.184c-0.564,-0.782 -0.821,-1.859 -0.821,-3.291c0.001,-2.043 0.381,-4.201 1.189,-6.436zm13.876,-2.252c-1.445,2.376 -2.171,4.927 -2.171,7.662c0,2.175 0.505,4.043 1.556,5.611c1.055,1.581 2.619,2.397 4.739,2.397c1.837,0 3.419,-0.688 4.718,-2.085c1.273,-1.381 2.171,-2.949 2.616,-4.684c0.483,-1.722 0.697,-3.167 0.697,-4.359c0,-2.735 -0.586,-4.774 -1.782,-6.124c-1.162,-1.325 -2.611,-2.009 -4.32,-2.009c-2.583,0.002 -4.596,1.194 -6.053,3.591zm5.794,-1.098c1.013,0 1.812,0.363 2.381,1.137c0.581,0.752 0.88,1.833 0.88,3.265c0,1.995 -0.406,4.132 -1.188,6.406c-0.774,2.291 -2.017,3.453 -3.727,3.453c-0.97,0 -1.752,-0.397 -2.312,-1.184c-0.568,-0.782 -0.829,-1.859 -0.829,-3.291c0,-2.043 0.393,-4.201 1.184,-6.436c0.791,-2.213 2.001,-3.35 3.611,-3.35zm16.342,-2.491c-2.577,0 -4.585,1.192 -6.056,3.59c-1.457,2.376 -2.188,4.927 -2.188,7.662c0,2.175 0.508,4.043 1.577,5.611c1.042,1.581 2.624,2.397 4.744,2.397c1.841,0 3.419,-0.688 4.696,-2.085c1.299,-1.381 2.196,-2.949 2.641,-4.684c0.483,-1.722 0.701,-3.167 0.701,-4.359c0,-2.735 -0.59,-4.774 -1.778,-6.124c-1.196,-1.325 -2.619,-2.008 -4.337,-2.008zm1.825,13.298c-0.774,2.291 -2.009,3.453 -3.727,3.453c-0.991,0 -1.752,-0.397 -2.312,-1.184c-0.568,-0.782 -0.855,-1.859 -0.855,-3.291c0,-2.043 0.414,-4.201 1.192,-6.436c0.812,-2.213 2,-3.35 3.602,-3.35c1.017,0 1.812,0.363 2.406,1.137c0.581,0.752 0.863,1.833 0.863,3.265c0.002,1.996 -0.395,4.133 -1.169,6.406zm14.252,-13.298c-2.581,0 -4.585,1.192 -6.047,3.59c-1.449,2.376 -2.188,4.927 -2.188,7.662c0,2.175 0.526,4.043 1.564,5.611c1.055,1.581 2.616,2.397 4.744,2.397c1.833,0 3.423,-0.688 4.722,-2.085c1.269,-1.381 2.158,-2.949 2.619,-4.684c0.479,-1.722 0.697,-3.167 0.697,-4.359c0,-2.735 -0.589,-4.774 -1.778,-6.124c-1.166,-1.325 -2.623,-2.008 -4.333,-2.008zm1.82,13.298c-0.782,2.291 -2.025,3.453 -3.726,3.453c-0.978,0 -1.757,-0.397 -2.325,-1.184c-0.551,-0.782 -0.82,-1.859 -0.82,-3.291c0,-2.043 0.398,-4.201 1.197,-6.436c0.773,-2.213 1.995,-3.35 3.59,-3.35c1.026,0 1.82,0.363 2.389,1.137c0.581,0.752 0.889,1.833 0.889,3.265c-0.001,1.996 -0.42,4.133 -1.194,6.406zm15.047,-9.709c-1.448,2.376 -2.158,4.927 -2.158,7.662c0,2.175 0.517,4.043 1.555,5.611c1.035,1.581 2.616,2.397 4.739,2.397c1.851,0 3.406,-0.688 4.709,-2.085c1.29,-1.381 2.154,-2.949 2.637,-4.684c0.453,-1.722 0.693,-3.167 0.693,-4.359c0,-2.735 -0.582,-4.774 -1.778,-6.124c-1.192,-1.325 -2.641,-2.009 -4.329,-2.009c-2.572,0.002 -4.614,1.194 -6.068,3.591zm5.782,-1.098c1.021,0 1.825,0.363 2.406,1.137c0.59,0.752 0.872,1.833 0.872,3.265c0,1.995 -0.389,4.132 -1.179,6.406c-0.774,2.291 -2.004,3.453 -3.722,3.453c-0.991,0 -1.778,-0.397 -2.312,-1.184c-0.573,-0.782 -0.838,-1.859 -0.838,-3.291c0,-2.043 0.38,-4.201 1.179,-6.436c0.804,-2.213 1.992,-3.35 3.594,-3.35zm14.432,16.769c1.85,0 3.393,-0.688 4.692,-2.085c1.304,-1.381 2.175,-2.949 2.654,-4.684c0.453,-1.722 0.692,-3.167 0.692,-4.359c0,-2.735 -0.586,-4.774 -1.778,-6.124c-1.192,-1.325 -2.649,-2.009 -4.329,-2.009c-2.59,0 -4.624,1.192 -6.068,3.59c-1.458,2.376 -2.167,4.927 -2.167,7.662c0,2.175 0.513,4.043 1.564,5.611c1.039,1.582 2.625,2.398 4.74,2.398zm-1.945,-13.419c0.791,-2.213 1.979,-3.35 3.59,-3.35c1.013,0 1.812,0.363 2.41,1.137c0.577,0.752 0.859,1.833 0.859,3.265c0,1.995 -0.389,4.132 -1.167,6.406c-0.786,2.291 -2.009,3.453 -3.731,3.453c-0.987,0 -1.778,-0.397 -2.312,-1.184c-0.565,-0.782 -0.855,-1.859 -0.855,-3.291c0.001,-2.043 0.403,-4.201 1.206,-6.436zm18.013,13.419c1.838,0 3.398,-0.688 4.701,-2.085c1.299,-1.381 2.162,-2.949 2.641,-4.684c0.461,-1.722 0.697,-3.167 0.697,-4.359c0,-2.735 -0.594,-4.774 -1.778,-6.124c-1.188,-1.325 -2.645,-2.009 -4.342,-2.009c-2.573,0 -4.607,1.192 -6.059,3.59c-1.445,2.376 -2.167,4.927 -2.167,7.662c0,2.175 0.526,4.043 1.56,5.611c1.042,1.582 2.619,2.398 4.747,2.398zm-1.949,-13.419c0.812,-2.213 2,-3.35 3.603,-3.35c1.017,0 1.812,0.363 2.402,1.137c0.577,0.752 0.867,1.833 0.867,3.265c0,1.995 -0.402,4.132 -1.171,6.406c-0.774,2.291 -2.017,3.453 -3.727,3.453c-1,0 -1.778,-0.397 -2.321,-1.184c-0.56,-0.782 -0.85,-1.859 -0.85,-3.291c0.001,-2.043 0.394,-4.201 1.197,-6.436zm19.945,-5.841c-2.568,0 -4.577,1.192 -6.042,3.59c-1.462,2.376 -2.184,4.927 -2.184,7.662c0,2.175 0.521,4.043 1.56,5.611c1.03,1.581 2.62,2.397 4.748,2.397c1.837,0 3.423,-0.688 4.692,-2.085c1.299,-1.381 2.188,-2.949 2.65,-4.684c0.474,-1.722 0.684,-3.167 0.684,-4.359c0,-2.735 -0.577,-4.774 -1.765,-6.124c-1.194,-1.325 -2.625,-2.008 -4.343,-2.008zm1.829,13.298c-0.782,2.291 -2.026,3.453 -3.722,3.453c-1.004,0 -1.769,-0.397 -2.329,-1.184c-0.556,-0.782 -0.838,-1.859 -0.838,-3.291c0,-2.043 0.406,-4.201 1.184,-6.436c0.803,-2.213 1.992,-3.35 3.602,-3.35c1.013,0 1.821,0.363 2.41,1.137c0.577,0.752 0.851,1.833 0.851,3.265c0,1.996 -0.381,4.133 -1.158,6.406zm21.085,-13.298c-2.568,0 -4.586,1.192 -6.047,3.59c-1.448,2.376 -2.179,4.927 -2.179,7.662c0,2.175 0.517,4.043 1.577,5.611c1.047,1.581 2.624,2.397 4.722,2.397c1.868,0 3.423,-0.688 4.727,-2.085c1.308,-1.381 2.167,-2.949 2.645,-4.684c0.453,-1.722 0.692,-3.167 0.692,-4.359c0,-2.735 -0.611,-4.774 -1.778,-6.124c-1.192,-1.325 -2.641,-2.008 -4.359,-2.008zm1.846,13.298c-0.782,2.291 -2.03,3.453 -3.731,3.453c-0.987,0 -1.769,-0.397 -2.329,-1.184c-0.543,-0.782 -0.825,-1.859 -0.825,-3.291c0,-2.043 0.389,-4.201 1.192,-6.436c0.769,-2.213 1.987,-3.35 3.59,-3.35c1.021,0 1.825,0.363 2.402,1.137c0.573,0.752 0.872,1.833 0.872,3.265c0,1.996 -0.385,4.133 -1.171,6.406zm14.248,-13.298c-2.568,0 -4.603,1.192 -6.06,3.59c-1.453,2.376 -2.162,4.927 -2.162,7.662c0,2.175 0.513,4.043 1.556,5.611c1.043,1.581 2.619,2.397 4.739,2.397c1.837,0 3.397,-0.688 4.692,-2.085c1.299,-1.381 2.18,-2.949 2.65,-4.684c0.462,-1.722 0.701,-3.167 0.701,-4.359c0,-2.735 -0.599,-4.774 -1.782,-6.124c-1.193,-1.325 -2.646,-2.008 -4.334,-2.008zm1.816,13.298c-0.765,2.291 -2,3.453 -3.718,3.453c-0.991,0 -1.778,-0.397 -2.312,-1.184c-0.568,-0.782 -0.859,-1.859 -0.859,-3.291c0,-2.043 0.402,-4.201 1.197,-6.436c0.799,-2.213 2,-3.35 3.602,-3.35c1.009,0 1.812,0.363 2.398,1.137c0.589,0.752 0.863,1.833 0.863,3.265c0,1.996 -0.385,4.133 -1.171,6.406zm14.252,-13.298c-2.568,0 -4.607,1.192 -6.064,3.59c-1.448,2.376 -2.158,4.927 -2.158,7.662c0,2.175 0.513,4.043 1.56,5.611c1.034,1.581 2.607,2.397 4.739,2.397c1.842,0 3.406,-0.688 4.697,-2.085c1.299,-1.381 2.171,-2.949 2.641,-4.684c0.453,-1.722 0.697,-3.167 0.697,-4.359c0,-2.735 -0.577,-4.774 -1.778,-6.124c-1.193,-1.325 -2.633,-2.008 -4.334,-2.008zm1.825,13.298c-0.774,2.291 -2.017,3.453 -3.718,3.453c-1.013,0 -1.786,-0.397 -2.325,-1.184c-0.564,-0.782 -0.842,-1.859 -0.842,-3.291c0,-2.043 0.385,-4.201 1.192,-6.436c0.799,-2.213 1.992,-3.35 3.594,-3.35c1.013,0 1.812,0.363 2.41,1.137c0.568,0.752 0.85,1.833 0.85,3.265c0.001,1.996 -0.388,4.133 -1.161,6.406zm14.244,-13.298c-2.573,0 -4.607,1.192 -6.052,3.59c-1.453,2.376 -2.175,4.927 -2.175,7.662c0,2.175 0.517,4.043 1.568,5.611c1.03,1.581 2.611,2.397 4.748,2.397c1.825,0 3.398,-0.688 4.684,-2.085c1.299,-1.381 2.171,-2.949 2.645,-4.684c0.457,-1.722 0.701,-3.167 0.701,-4.359c0,-2.735 -0.586,-4.774 -1.774,-6.124c-1.196,-1.325 -2.649,-2.008 -4.345,-2.008zm1.824,13.298c-0.773,2.291 -2.008,3.453 -3.722,3.453c-1,0 -1.778,-0.397 -2.325,-1.184c-0.56,-0.782 -0.842,-1.859 -0.842,-3.291c0,-2.043 0.402,-4.201 1.192,-6.436c0.803,-2.213 1.995,-3.35 3.598,-3.35c1.017,0 1.816,0.363 2.406,1.137c0.581,0.752 0.863,1.833 0.863,3.265c0.001,1.996 -0.384,4.133 -1.17,6.406z"/> </g></svg>